<?xml version="1.0" standalone="no"?>
<!DOCTYPE svg PUBLIC "-//W3C//DTD SVG 20010904//EN"
 "http://www.w3.org/TR/2001/REC-SVG-20010904/DTD/svg10.dtd">
<svg version="1.0" xmlns="http://www.w3.org/2000/svg"
 width="16.000000pt" height="16.000000pt" viewBox="0 0 16.000000 16.000000"
 preserveAspectRatio="xMidYMid meet">

<g transform="translate(0.000000,16.000000) scale(0.100000,-0.100000)"
fill="#000000" stroke="none">
<path d="M53 122 c-16 -13 -20 -24 -16 -45 4 -21 8 -25 14 -15 7 10 9 10 9 0
0 -8 12 -12 35 -10 20 1 35 7 35 15 0 18 -38 36 -66 30 -29 -5 -31 4 -4 21 17
10 25 9 48 -5 l27 -17 -22 22 c-27 26 -32 27 -60 4z"/>
</g>
</svg>
